<?xml version="1.0" encoding="UTF-8" standalone="no"?>
<!-- Generator: Adobe Illustrator 24.0.1, SVG Export Plug-In . SVG Version: 6.00 Build 0)  -->

<svg
   xmlns:dc="http://purl.org/dc/elements/1.1/"
   xmlns:cc="http://creativecommons.org/ns#"
   xmlns:rdf="http://www.w3.org/1999/02/22-rdf-syntax-ns#"
   xmlns:svg="http://www.w3.org/2000/svg"
   xmlns="http://www.w3.org/2000/svg"
   xmlns:sodipodi="http://sodipodi.sourceforge.net/DTD/sodipodi-0.dtd"
   xmlns:inkscape="http://www.inkscape.org/namespaces/inkscape"
   version="1.1"
   x="0px"
   y="0px"
   width="400px"
   height="400px"
   viewBox="28 0 70 35"
   style="enable-background:new 0 0 70 70;"
   xml:space="preserve"
   id="svg14"
   sodipodi:docname="logo.svg"
   inkscape:version="0.92.5 (2060ec1f9f, 2020-04-08)"><metadata
   id="metadata20"><rdf:RDF><cc:Work
       rdf:about=""><dc:format>image/svg+xml</dc:format><dc:type
         rdf:resource="http://purl.org/dc/dcmitype/StillImage" /></cc:Work></rdf:RDF></metadata><defs
   id="defs18" /><sodipodi:namedview
   pagecolor="#ffffff"
   bordercolor="#666666"
   borderopacity="1"
   objecttolerance="10"
   gridtolerance="10"
   guidetolerance="10"
   inkscape:pageopacity="0"
   inkscape:pageshadow="2"
   inkscape:window-width="1920"
   inkscape:window-height="1043"
   id="namedview16"
   showgrid="false"
   inkscape:zoom="0.59"
   inkscape:cx="200"
   inkscape:cy="200"
   inkscape:window-x="0"
   inkscape:window-y="0"
   inkscape:window-maximized="1"
   inkscape:current-layer="svg14" />
<g
   id="Layer_1"
   transform="matrix(1.6987345,0,0,1.6987345,-21.886449,-17.046526)">
	<g
   id="g10">
		<g
   id="g8">
			<path
   style="fill:#ff165d"
   d="m 47.8,13.6 v 14.6 l 4.4,-1.4 V 12.2 Z m 0,0 v 14.6 l 4.4,-1.4 V 12.2 Z M 70.3,24.3 66.9,9.3 C 66.7,8.3 66,7.6 65.2,7.1 L 51.4,0.5 C 50.5,0.1 49.5,0.1 48.6,0.5 L 34.8,7.2 c -0.9,0.4 -1.5,1.2 -1.7,2.2 l -3.4,15 c -0.2,0.9 0,1.9 0.6,2.7 l 9.6,12 c 0.6,0.8 1.5,1.2 2.5,1.2 h 15.3 c 1,0 1.9,-0.4 2.5,-1.2 l 9.6,-12 c 0.5,-0.8 0.7,-1.8 0.5,-2.8 z m -10.2,2.5 -12.3,3.8 v -2.4 l -7.9,2.4 v -17 L 52.2,9.8 v 2.4 l 7.9,-2.4 z m -7.9,-14.6 -4.4,1.4 v 14.6 l 4.4,-1.4 z m -4.4,1.4 v 14.6 l 4.4,-1.4 V 12.2 Z m 0,0 v 14.6 l 4.4,-1.4 V 12.2 Z"
   id="path2"
   inkscape:connector-curvature="0" />
			<polygon
   style="fill:#ffffff"
   points="39.9,13.6 52.2,9.8 52.2,12.2 47.8,13.6 47.8,28.2 39.9,30.6 "
   id="polygon4" />
			<polygon
   style="fill:#ffffff"
   points="52.2,12.2 60.1,9.8 60.1,26.8 47.8,30.6 47.8,28.2 52.2,26.8 "
   id="polygon6" />
		</g>
	</g>
</g>
<g
   id="Isolation_Mode"
   transform="translate(-1.1864405,-17.5)">
</g>
</svg>