<?xml version="1.0" encoding="utf-8"?>
<!-- Generator: Adobe Illustrator 27.1.0, SVG Export Plug-In . SVG Version: 6.00 Build 0)  -->
<svg version="1.1" xmlns="http://www.w3.org/2000/svg" xmlns:xlink="http://www.w3.org/1999/xlink" x="0px" y="0px"
	 viewBox="0 0 873.3 244.1" style="enable-background:new 0 0 873.3 244.1;" xml:space="preserve">
<style type="text/css">
	.st0{display:none;}
	.st1{fill:#FF165D;}
	.st2{enable-background:new    ;}
	.st3{fill:#FFFFFF;}
</style>
<g id="Ebene_1">
	<g class="st0">
		
			<image style="display:inline;overflow:visible;enable-background:new    ;" width="870" height="240" xlink:href="75FD5452.png"  transform="matrix(1 0 0 1 2.2979 3.0638)">
		</image>
	</g>
	<path pointer-events="all" class="st1" d="M540.3,193.6h325c4.1,0,7.5,3.4,7.5,7.5v35c0,4.1-3.4,7.5-7.5,7.5h-325
		c-4.1,0-7.5-3.4-7.5-7.5v-35C532.8,196.9,536.2,193.6,540.3,193.6z"/>
	<g transform="translate(-0.5 -0.5)">
		<g class="st2">
			<path class="st3" d="M638.6,233v-26.9h10.8c2,0,3.6,0.3,5,0.9c1.3,0.6,2.3,1.4,3,2.4c0.7,1,1,2.2,1,3.6c0,1.1-0.2,2-0.6,2.8
				c-0.4,0.8-1,1.4-1.7,1.9s-1.6,0.9-2.5,1.1v0.3c1,0,2,0.3,2.9,0.9s1.6,1.3,2.2,2.2s0.8,2.1,0.8,3.4c0,1.4-0.4,2.7-1.1,3.8
				c-0.7,1.1-1.7,2-3.1,2.6c-1.4,0.6-3.1,1-5.1,1H638.6z M644.3,217.4h4.2c0.8,0,1.5-0.1,2.1-0.4c0.6-0.3,1.1-0.7,1.4-1.2
				c0.4-0.5,0.5-1.1,0.5-1.8c0-1-0.3-1.8-1-2.4s-1.7-0.9-2.9-0.9h-4.3V217.4z M644.3,228.4h4.6c1.6,0,2.7-0.3,3.5-0.9
				c0.7-0.6,1.1-1.4,1.1-2.4c0-0.7-0.2-1.4-0.5-2c-0.4-0.6-0.9-1-1.5-1.3s-1.4-0.5-2.4-0.5h-4.8V228.4z"/>
			<path class="st3" d="M672.2,233.4c-2.1,0-3.9-0.4-5.4-1.3c-1.5-0.8-2.6-2-3.4-3.6c-0.8-1.6-1.2-3.4-1.2-5.5
				c0-2.1,0.4-3.9,1.2-5.5c0.8-1.6,1.9-2.8,3.4-3.7s3.2-1.3,5.2-1.3c1.3,0,2.6,0.2,3.7,0.6c1.2,0.4,2.2,1.1,3,1.9
				c0.9,0.8,1.5,1.9,2,3.2c0.5,1.3,0.7,2.8,0.7,4.5v1.5h-17v-3.5h11.8c0-0.8-0.2-1.5-0.5-2.1c-0.4-0.6-0.8-1.1-1.5-1.5
				c-0.6-0.4-1.3-0.5-2.1-0.5c-0.8,0-1.6,0.2-2.3,0.6s-1.2,0.9-1.5,1.6c-0.4,0.7-0.6,1.4-0.6,2.2v3.3c0,1,0.2,1.9,0.6,2.6
				c0.4,0.7,0.9,1.3,1.6,1.7c0.7,0.4,1.5,0.6,2.4,0.6c0.6,0,1.2-0.1,1.7-0.3c0.5-0.2,1-0.4,1.3-0.8c0.4-0.4,0.6-0.8,0.8-1.3l5.2,0.3
				c-0.3,1.2-0.8,2.3-1.6,3.3c-0.8,0.9-1.9,1.6-3.1,2.2C675.3,233.2,673.9,233.4,672.2,233.4z"/>
			<path class="st3" d="M687.9,210.2c-0.8,0-1.5-0.3-2.1-0.8c-0.6-0.6-0.9-1.2-0.9-2c0-0.8,0.3-1.4,0.9-2c0.6-0.6,1.3-0.8,2.1-0.8
				s1.5,0.3,2.1,0.8c0.6,0.6,0.9,1.2,0.9,2c0,0.8-0.3,1.4-0.9,2C689.5,210,688.8,210.2,687.9,210.2z M685.1,233v-20.2h5.6V233H685.1
				z"/>
			<path class="st3" d="M695.3,233v-26.9h5.6v10.1h0.2c0.2-0.5,0.6-1.1,1.1-1.7c0.5-0.6,1.1-1,1.8-1.4s1.7-0.6,2.8-0.6
				c1.5,0,2.8,0.4,4.1,1.1s2.2,1.9,3,3.5c0.7,1.5,1.1,3.5,1.1,5.8c0,2.3-0.4,4.1-1.1,5.7c-0.7,1.5-1.7,2.7-2.9,3.5s-2.6,1.2-4.2,1.2
				c-1.1,0-2-0.2-2.8-0.5c-0.8-0.4-1.4-0.8-1.9-1.4c-0.5-0.5-0.8-1.1-1.1-1.7h-0.2v3.2H695.3z M700.8,222.9c0,1.2,0.2,2.2,0.5,3.1
				c0.3,0.9,0.8,1.6,1.4,2.1s1.4,0.7,2.3,0.7c0.9,0,1.7-0.3,2.3-0.8c0.6-0.5,1.1-1.2,1.4-2.1c0.3-0.9,0.5-1.9,0.5-3.1
				c0-1.2-0.2-2.2-0.5-3.1c-0.3-0.9-0.8-1.6-1.4-2.1c-0.6-0.5-1.4-0.7-2.3-0.7c-0.9,0-1.7,0.2-2.3,0.7s-1.1,1.2-1.4,2
				S700.8,221.7,700.8,222.9z"/>
			<path class="st3" d="M727.8,233.4c-2,0-3.8-0.4-5.3-1.3c-1.5-0.9-2.6-2.1-3.4-3.7c-0.8-1.6-1.2-3.4-1.2-5.4
				c0-2.1,0.4-3.9,1.2-5.5s2-2.8,3.4-3.7c1.5-0.9,3.2-1.3,5.3-1.3s3.8,0.4,5.3,1.3c1.5,0.9,2.6,2.1,3.4,3.7c0.8,1.6,1.2,3.4,1.2,5.5
				c0,2.1-0.4,3.9-1.2,5.4c-0.8,1.6-2,2.8-3.4,3.7C731.6,233,729.8,233.4,727.8,233.4z M727.8,229.1c0.9,0,1.7-0.3,2.3-0.8
				c0.6-0.5,1.1-1.3,1.4-2.2c0.3-0.9,0.5-2,0.5-3.1s-0.2-2.2-0.5-3.1c-0.3-0.9-0.8-1.6-1.4-2.2s-1.4-0.8-2.3-0.8
				c-0.9,0-1.7,0.3-2.4,0.8c-0.6,0.5-1.1,1.3-1.4,2.2c-0.3,0.9-0.5,2-0.5,3.1s0.2,2.2,0.5,3.1c0.3,0.9,0.8,1.6,1.4,2.2
				C726.1,228.8,726.9,229.1,727.8,229.1z"/>
			<path class="st3" d="M750.5,233.4c-2,0-3.8-0.4-5.3-1.3c-1.5-0.9-2.6-2.1-3.4-3.7c-0.8-1.6-1.2-3.4-1.2-5.4
				c0-2.1,0.4-3.9,1.2-5.5s2-2.8,3.4-3.7c1.5-0.9,3.2-1.3,5.3-1.3s3.8,0.4,5.3,1.3c1.5,0.9,2.6,2.1,3.4,3.7c0.8,1.6,1.2,3.4,1.2,5.5
				c0,2.1-0.4,3.9-1.2,5.4c-0.8,1.6-2,2.8-3.4,3.7C754.3,233,752.5,233.4,750.5,233.4z M750.5,229.1c0.9,0,1.7-0.3,2.3-0.8
				c0.6-0.5,1.1-1.3,1.4-2.2c0.3-0.9,0.5-2,0.5-3.1s-0.2-2.2-0.5-3.1c-0.3-0.9-0.8-1.6-1.4-2.2s-1.4-0.8-2.3-0.8
				c-0.9,0-1.7,0.3-2.4,0.8c-0.6,0.5-1.1,1.3-1.4,2.2c-0.3,0.9-0.5,2-0.5,3.1s0.2,2.2,0.5,3.1c0.3,0.9,0.8,1.6,1.4,2.2
				C748.8,228.8,749.6,229.1,750.5,229.1z"/>
			<path class="st3" d="M774.8,212.9v4.2h-12.2v-4.2H774.8z M765.4,208h5.6v18.8c0,0.5,0.1,0.9,0.2,1.2c0.2,0.3,0.4,0.5,0.7,0.6
				c0.3,0.1,0.6,0.2,1,0.2c0.3,0,0.5,0,0.8-0.1c0.3,0,0.5-0.1,0.6-0.1l0.9,4.2c-0.3,0.1-0.7,0.2-1.2,0.3c-0.5,0.1-1.1,0.2-1.9,0.2
				c-1.3,0.1-2.5-0.1-3.5-0.5c-1-0.4-1.8-1.1-2.4-1.9s-0.8-2-0.8-3.3V208z"/>
		</g>
	</g>
</g>
<g id="Ebene_2">
	<g id="Layer_1">
		<g>
			<g>
				<g>
					<path class="st3" d="M339.3,118.4h52.1v19.2v40.1h-20.4v-13.8c-7.8,10.2-19.8,16.2-35.3,16.2c-31.2,0-54.5-25.2-54.5-57.5
						s24-57.5,56.9-57.5c26.4,0,47.9,17.4,53.3,38.9h-22.8c-4.2-10.2-16.2-18-30.6-18c-21.6,0-35.3,15-35.3,35.9
						c0,22.2,15,37.1,35.3,37.1c16.2,0,28.8-7.8,31.8-22.2h-30.6C339.3,137,339.3,118.4,339.3,118.4z"/>
					<path class="st3" d="M441.2,163.3c7.2,0,13.8-3.6,16.2-7.8h19.8c-4.8,16.2-18.6,25.2-36.5,25.2c-25.8,0-41.9-18-41.9-41.3
						S415.4,98,440.6,98c23.4,0,38.9,18.6,38.9,41.3c0,3,0,5.4-0.6,8.4h-58.7C422.6,158,431,163.3,441.2,163.3z M459.1,131
						c-2.4-11.4-10.8-15.6-19.2-15.6c-10.8,0-18,6-20.4,15.6H459.1z"/>
					<path class="st3" d="M529.8,118.4H516v59.3h-20.4v-59.3h-13.8V98.6h13.8V73.5H516v25.2h13.8V118.4z"/>
					<path class="st3" d="M616.1,67.5v110.2h-20.4v-9.6c-5.4,7.2-14.4,11.4-25.8,11.4c-21,0-38.3-18-38.3-41.3S549,96.8,570,96.8
						c11.4,0,19.8,4.2,25.8,11.4V67.5H616.1z M596.3,138.2c0-13.2-9-22.2-21.6-22.2s-21.6,9-21.6,22.2s9,22.2,21.6,22.2
						C586.7,160.4,596.3,151.4,596.3,138.2z"/>
					<path class="st3" d="M665.8,163.3c7.2,0,13.8-3.6,16.2-7.8h19.8c-4.8,16.2-18.6,25.2-36.5,25.2c-25.8,0-41.9-18-41.9-41.3
						S640.1,98,665.2,98c23.4,0,38.9,18.6,38.9,41.3c0,3,0,5.4-0.6,8.4h-58.7C647.2,158,656.2,163.3,665.8,163.3z M684.4,131
						c-2.4-11.4-10.8-15.6-19.2-15.6c-10.8,0-18,6-20.4,15.6H684.4z"/>
					<path class="st3" d="M753.3,180.1c-24,0-41.3-18-41.3-41.3s17.4-41.3,41.3-41.3c19.8,0,35.9,13.2,39.5,31.2h-21.6
						c-3-6.6-9.6-10.8-18-10.8c-12,0-21,9-21,21.6s9,21.6,21,21.6c8.4,0,15-4.2,18-10.8h21.6C789.2,166.9,773.1,180.1,753.3,180.1z"
						/>
					<path class="st3" d="M847.9,177.7l-27.6-35.3v35.3H800V67.5h20.4v65.9l25.8-34.7h23.4l-30,38.9l31.2,40.1H847.9z"/>
				</g>
			</g>
			<g>
				<path class="st1" d="M111.7,83.1v87.5l26.4-8.4V74.7L111.7,83.1z M111.7,83.1v87.5l26.4-8.4V74.7L111.7,83.1z M246.5,147.2
					l-20.4-89.9c-1.2-6-5.4-10.2-10.2-13.2L133.2,4.6c-5.4-2.4-11.4-2.4-16.8,0L33.8,44.7c-5.4,2.4-9,7.2-10.2,12.6L3.2,147.2
					c-1.2,5.4,0,11.4,3.6,16.2l57.5,71.9c3.6,4.8,9,7.2,15,7.2H171c6,0,11.4-2.4,15-7.2l57.5-71.9
					C246.5,158.6,247.7,152.6,246.5,147.2z M185.4,162.1l-73.7,22.8v-14.4l-47.3,14.4V83.1L138,60.3v14.4l47.3-14.4
					C185.4,60.3,185.4,162.1,185.4,162.1z M138,74.7l-26.4,8.4v87.5l26.4-8.4V74.7z M111.7,83.1v87.5l26.4-8.4V74.7L111.7,83.1z
					 M111.7,83.1v87.5l26.4-8.4V74.7L111.7,83.1z"/>
				<polygon class="st3" points="138,60.3 138,74.7 111.7,83.1 111.7,170.5 64.3,184.9 64.3,83.1 				"/>
				<polygon class="st3" points="185.4,60.3 185.4,162.1 111.7,184.9 111.7,170.5 138,162.1 138,74.7 				"/>
			</g>
		</g>
	</g>
	<g id="Isolation_Mode">
	</g>
</g>
</svg>
