<?xml version="1.0" encoding="utf-8"?>
<!-- Generator: Adobe Illustrator 24.0.1, SVG Export Plug-In . SVG Version: 6.00 Build 0)  -->
<svg version="1.1" xmlns="http://www.w3.org/2000/svg" xmlns:xlink="http://www.w3.org/1999/xlink" x="0px" y="0px" width="145px"
	 height="40px" viewBox="0 0 145 40" style="enable-background:new 0 0 145 40;" xml:space="preserve">
<g id="Layer_1">
	<g>
		<g>
			<g>
				<path style="fill:#3E175C;" d="M56.2,19.3h8.7v3.2v6.7h-3.4v-2.3c-1.3,1.7-3.3,2.7-5.9,2.7c-5.2,0-9.1-4.2-9.1-9.6
					c0-5.4,4-9.6,9.5-9.6c4.4,0,8,2.9,8.9,6.5h-3.8c-0.7-1.7-2.7-3-5.1-3c-3.6,0-5.9,2.5-5.9,6c0,3.7,2.5,6.2,5.9,6.2
					c2.7,0,4.8-1.3,5.3-3.7h-5.1V19.3z"/>
				<path style="fill:#3E175C;" d="M73.2,26.8c1.2,0,2.3-0.6,2.7-1.3l3.3,0c-0.8,2.7-3.1,4.2-6.1,4.2c-4.3,0-7-3-7-6.9
					c0-3.9,2.8-6.9,7-6.9c3.9,0,6.5,3.1,6.5,6.9c0,0.5,0,0.9-0.1,1.4h-9.8C70.1,25.9,71.5,26.8,73.2,26.8z M76.2,21.4
					c-0.4-1.9-1.8-2.6-3.2-2.6c-1.8,0-3,1-3.4,2.6H76.2z"/>
				<path style="fill:#3E175C;" d="M88,19.3h-2.3v9.9h-3.4v-9.9H80v-3.3h2.3v-4.2h3.4v4.2H88V19.3z"/>
				<path style="fill:#3E175C;" d="M102.4,10.8v18.4h-3.4v-1.6c-0.9,1.2-2.4,1.9-4.3,1.9c-3.5,0-6.4-3-6.4-6.9
					c0-3.9,2.9-6.9,6.4-6.9c1.9,0,3.3,0.7,4.3,1.9v-6.8H102.4z M99.1,22.6c0-2.2-1.5-3.7-3.6-3.7c-2.1,0-3.6,1.5-3.6,3.7
					c0,2.2,1.5,3.7,3.6,3.7C97.5,26.3,99.1,24.8,99.1,22.6z"/>
				<path style="fill:#3E175C;" d="M110.7,26.8c1.2,0,2.3-0.6,2.7-1.3l3.3,0c-0.8,2.7-3.1,4.2-6.1,4.2c-4.3,0-7-3-7-6.9
					c0-3.9,2.8-6.9,7-6.9c3.9,0,6.5,3.1,6.5,6.9c0,0.5,0,0.9-0.1,1.4h-9.8C107.6,25.9,109.1,26.8,110.7,26.8z M113.8,21.4
					c-0.4-1.9-1.8-2.6-3.2-2.6c-1.8,0-3,1-3.4,2.6H113.8z"/>
				<path style="fill:#3E175C;" d="M125.3,29.6c-4,0-6.9-3-6.9-6.9c0-3.9,2.9-6.9,6.9-6.9c3.3,0,6,2.2,6.6,5.2h-3.6
					c-0.5-1.1-1.6-1.8-3-1.8c-2,0-3.5,1.5-3.5,3.6c0,2.1,1.5,3.6,3.5,3.6c1.4,0,2.5-0.7,3-1.8h3.6C131.3,27.4,128.6,29.6,125.3,29.6
					z"/>
				<path style="fill:#3E175C;" d="M141.1,29.2l-4.6-5.9v5.9h-3.4V10.8h3.4v11l4.3-5.8h3.9l-5,6.5l5.2,6.7H141.1z"/>
			</g>
		</g>
		<g>
			<path style="fill:#FF165D;" d="M18.2,13.4V28l4.4-1.4V12L18.2,13.4z M18.2,13.4V28l4.4-1.4V12L18.2,13.4z M40.7,24.1l-3.4-15
				c-0.2-1-0.9-1.7-1.7-2.2L21.8,0.3c-0.9-0.4-1.9-0.4-2.8,0L5.2,7C4.3,7.4,3.7,8.2,3.5,9.1l-3.4,15c-0.2,0.9,0,1.9,0.6,2.7l9.6,12
				c0.6,0.8,1.5,1.2,2.5,1.2h15.3c1,0,1.9-0.4,2.5-1.2l9.6-12C40.7,26,40.9,25,40.7,24.1z M30.5,26.6l-12.3,3.8V28l-7.9,2.4v-17
				l12.3-3.8V12l7.9-2.4V26.6z M22.6,12l-4.4,1.4V28l4.4-1.4V12z M18.2,13.4V28l4.4-1.4V12L18.2,13.4z M18.2,13.4V28l4.4-1.4V12
				L18.2,13.4z"/>
			<polygon style="fill:#FFFFFF;" points="22.6,9.6 22.6,12 18.2,13.4 18.2,28 10.3,30.4 10.3,13.4 			"/>
			<polygon style="fill:#FFFFFF;" points="30.5,9.6 30.5,26.6 18.2,30.4 18.2,28 22.6,26.6 22.6,12 			"/>
		</g>
	</g>
</g>
<g id="Isolation_Mode">
</g>
</svg>
